<svg width="10" height="16" viewBox="0 0 10 16" fill="none" xmlns="http://www.w3.org/2000/svg">
<path d="M4.63985 3.07246C5.48828 3.07246 6.17608 2.38467 6.17608 1.53623C6.17608 0.687795 5.48828 0 4.63985 0C3.79141 0 3.10361 0.687795 3.10361 1.53623C3.10361 2.38467 3.79141 3.07246 4.63985 3.07246Z" fill="#AFAFAF"/>
<path d="M8.867 6.87373C7.60191 6.14142 6.5639 5.15223 5.69013 3.98854C5.14109 3.21641 3.68948 3.25672 3.09962 3.96425C2.20231 4.83727 1.44096 5.73708 0.837081 6.63739C0.590222 7.00617 0.688365 7.50515 1.0569 7.75201C1.19435 7.84414 1.34933 7.8882 1.5033 7.8882C1.76218 7.8882 2.01655 7.76327 2.17127 7.53194C2.43641 7.13711 2.73709 6.74104 3.07008 6.34671C3.05731 7.18118 3.09912 8.68686 3.12015 9.3636C3.12716 9.58893 3.07583 9.80925 2.97118 10.0093C2.14298 11.5908 1.61321 13.0873 1.07543 14.9179C0.943736 15.3648 1.19986 15.8338 1.64651 15.9652C1.74765 15.995 1.8498 16.005 1.94845 15.9975C2.28844 15.9714 2.59238 15.7399 2.69403 15.3939C3.19025 13.7059 3.6697 12.3392 4.41753 10.8921C4.45559 10.8936 4.49364 10.8936 4.5322 10.8918C5.00964 12.3164 5.48734 13.7417 5.96553 15.1663C6.31279 16.2045 7.92388 15.6653 7.57562 14.6267C7.05311 13.0692 6.53136 11.5125 6.0106 9.95521C5.98031 9.86583 5.90695 9.51582 5.89668 9.40165C5.81056 8.44226 5.77926 7.48587 5.78853 6.52823C6.52159 7.2305 7.33452 7.83963 8.23758 8.36289C9.13814 8.88565 9.75554 7.38873 8.867 6.87373Z" fill="#AFAFAF"/>
</svg>
